<?xml version="1.0" encoding="UTF-8" standalone="no"?>
<!-- Created with Inkscape (http://www.inkscape.org/) -->

<svg
   xmlns:dc="http://purl.org/dc/elements/1.1/"
   xmlns:cc="http://creativecommons.org/ns#"
   xmlns:rdf="http://www.w3.org/1999/02/22-rdf-syntax-ns#"
   xmlns:svg="http://www.w3.org/2000/svg"
   xmlns="http://www.w3.org/2000/svg"
   xmlns:sodipodi="http://sodipodi.sourceforge.net/DTD/sodipodi-0.dtd"
   xmlns:inkscape="http://www.inkscape.org/namespaces/inkscape"
   width="210mm"
   height="297mm"
   viewBox="0 0 744.09448819 1052.3622047"
   id="svg5856"
   version="1.1"
   inkscape:version="0.91 r13725"
   sodipodi:docname="symbols_working.svg">
  <defs
     id="defs5858" />
  <sodipodi:namedview
     id="base"
     pagecolor="#ffffff"
     bordercolor="#666666"
     borderopacity="1.0"
     inkscape:pageopacity="0.0"
     inkscape:pageshadow="2"
     inkscape:zoom="0.49497475"
     inkscape:cx="-304.76087"
     inkscape:cy="686.10596"
     inkscape:document-units="px"
     inkscape:current-layer="layer1"
     showgrid="true"
     inkscape:window-width="1440"
     inkscape:window-height="788"
     inkscape:window-x="0"
     inkscape:window-y="1"
     inkscape:window-maximized="1">
    <inkscape:grid
       type="xygrid"
       id="grid6422" />
  </sodipodi:namedview>
  <metadata
     id="metadata5861">
    <rdf:RDF>
      <cc:Work
         rdf:about="">
        <dc:format>image/svg+xml</dc:format>
        <dc:type
           rdf:resource="http://purl.org/dc/dcmitype/StillImage" />
        <dc:title></dc:title>
      </cc:Work>
    </rdf:RDF>
  </metadata>
  <g
     inkscape:label="Layer 1"
     inkscape:groupmode="layer"
     id="layer1">
    <path
       style="opacity:1;fill:#e9afaf;fill-opacity:1;stroke:#000000;stroke-width:0;stroke-linecap:round;stroke-linejoin:round;stroke-miterlimit:4;stroke-dasharray:none;stroke-dashoffset:0;stroke-opacity:1"
       id="path5799"
       sodipodi:type="arc"
       sodipodi:cx="-613.54095"
       sodipodi:cy="426.4368"
       sodipodi:rx="95"
       sodipodi:ry="95"
       sodipodi:start="0.24925222"
       sodipodi:end="0.2441"
       sodipodi:open="true"
       d="m -521.47672,449.87134 a 95,95 0 0 1 -115.38017,68.6598 95,95 0 0 1 -68.80836,-115.29164 95,95 0 0 1 115.20291,-68.9568 95,95 0 0 1 69.10513,115.11399" />
    <path
       style="opacity:1;fill:#000000;fill-opacity:1;stroke:#000000;stroke-width:3;stroke-linecap:round;stroke-linejoin:round;stroke-miterlimit:4;stroke-dasharray:none;stroke-dashoffset:0;stroke-opacity:1;"
       d="m -627.00423,348.10681 a 79.55158,79.55158 0 0 0 -24.39768,8.36661 l -0.15877,19.30352 a 64.205397,64.205397 0 0 0 -7.81373,6.90598 l -19.04858,-2.11057 a 79.55158,79.55158 0 0 0 -11.32157,23.20393 l 13.36566,13.58826 a 64.205397,64.205397 0 0 0 -0.69232,10.69105 l -14.79671,11.84615 a 79.55158,79.55158 0 0 0 8.3742,24.39608 l 18.5221,0.15299 a 64.205397,64.205397 0 0 0 7.57451,8.78184 l -2.00346,18.08668 a 79.55158,79.55158 0 0 0 23.20111,11.3247 l 12.59597,-12.38968 a 64.205397,64.205397 0 0 0 12.56412,0.80967 l 10.97122,13.70296 a 79.55158,79.55158 0 0 0 24.39448,-8.38387 l 0.14162,-17.3163 a 64.205397,64.205397 0 0 0 9.78087,-8.66434 l 17.09944,1.89434 a 79.55158,79.55158 0 0 0 11.32603,-23.19835 l -12.17785,-12.37975 a 64.205397,64.205397 0 0 0 0.62482,-12.80741 l 13.66461,-10.93947 a 79.55158,79.55158 0 0 0 -8.36486,-24.40065 l -18.09989,-0.14936 a 64.205397,64.205397 0 0 0 -7.99772,-8.81249 l 2.00076,-18.05742 a 79.55158,79.55158 0 0 0 -23.20681,-11.32146 l -13.37134,13.15272 a 64.205397,64.205397 0 0 0 -10.92974,-0.51173 l -11.82049,-14.76463 z m 9.55498,37.60339 a 40.911932,40.911932 0 0 1 10.98465,0.42848 40.911932,40.911932 0 0 1 33.23109,47.31773 l -0.0366,0.20788 a 40.911932,40.911932 0 0 1 -47.44607,33.04756 40.911932,40.911932 0 0 1 -33.10943,-47.40284 40.911932,40.911932 0 0 1 36.37615,-33.59875 z"
       id="path4862-9"
       inkscape:connector-curvature="0" />
    <path
       d="m -310.14082,449.87134 a 95,95 0 0 1 -115.38016,68.6598 95,95 0 0 1 -68.80836,-115.29164 95,95 0 0 1 115.20291,-68.9568 95,95 0 0 1 69.10513,115.11399"
       sodipodi:open="true"
       sodipodi:end="0.2441"
       sodipodi:start="0.24925222"
       sodipodi:ry="95"
       sodipodi:rx="95"
       sodipodi:cy="426.4368"
       sodipodi:cx="-402.20505"
       sodipodi:type="arc"
       id="path5801"
       style="opacity:1;fill:#e9afaf;fill-opacity:1;stroke:#000000;stroke-width:0;stroke-linecap:round;stroke-linejoin:round;stroke-miterlimit:4;stroke-dasharray:none;stroke-dashoffset:0;stroke-opacity:1" />
    <rect
       style="opacity:1;fill:#000000;fill-opacity:1;stroke:#000000;stroke-width:0;stroke-linecap:round;stroke-linejoin:round;stroke-miterlimit:4;stroke-dasharray:none;stroke-dashoffset:0;stroke-opacity:1"
       id="rect5803"
       width="29.632019"
       height="138.56337"
       x="-417.02115"
       y="357.15521"
       ry="3.3750196" />
    <path
       style="opacity:1;fill:#e9afaf;fill-opacity:1;stroke:#000000;stroke-width:0;stroke-linecap:round;stroke-linejoin:round;stroke-miterlimit:4;stroke-dasharray:none;stroke-dashoffset:0;stroke-opacity:1"
       id="path6678"
       sodipodi:type="arc"
       sodipodi:cx="35.812038"
       sodipodi:cy="420.88095"
       sodipodi:rx="95"
       sodipodi:ry="95"
       sodipodi:start="0.24925222"
       sodipodi:end="0.2441"
       sodipodi:open="true"
       d="M 127.87627,444.31549 A 95,95 0 0 1 12.496103,512.97529 95,95 0 0 1 -56.312256,397.68366 95,95 0 0 1 58.890652,328.72685 95,95 0 0 1 127.99579,443.84085" />
    <g
       id="g6703"
       transform="matrix(1.0928052,0,0,1.0928052,0.62534079,-38.741189)">
      <rect
         transform="matrix(0,-1,1,0,0,0)"
         y="-34.384373"
         x="-444.27145"
         height="53.284615"
         width="47.364101"
         id="rect6686"
         style="opacity:1;fill:#000000;fill-opacity:1;stroke:#000000;stroke-width:2.96025634;stroke-linecap:round;stroke-linejoin:round;stroke-miterlimit:4;stroke-dasharray:none;stroke-dashoffset:0;stroke-opacity:1" />
      <path
         inkscape:connector-curvature="0"
         id="path6688"
         d="m -4.7818127,420.58938 53.2846137,59.20513 0,-118.41026 z"
         style="fill:#000000;fill-rule:evenodd;stroke:#000000;stroke-width:4.73641014;stroke-linecap:round;stroke-linejoin:round;stroke-miterlimit:4;stroke-dasharray:none;stroke-opacity:1" />
      <path
         sodipodi:nodetypes="scsssssssssscsccsssscccsssssscc"
         inkscape:connector-curvature="0"
         id="path6701"
         d="m 76.025345,460.58917 c -1.446061,-2.18175 -2.663246,-4.05622 -2.704852,-4.16549 -0.04162,-0.10927 1.070828,-1.3029 2.472044,-2.65253 7.04142,-6.78211 11.361487,-14.59292 13.428594,-24.27922 0.607509,-2.8468 0.650632,-3.4371 0.650632,-8.90487 0,-5.48266 -0.04203,-6.05403 -0.65941,-8.9632 -2.031798,-9.57416 -6.396537,-17.45628 -13.403917,-24.20559 -1.392504,-1.3412 -2.531808,-2.49613 -2.531808,-2.5665 0,-0.10227 5.111627,-7.87398 5.404973,-8.21771 0.303221,-0.3553 6.031039,5.0843 8.65525,8.21972 7.055469,8.42991 11.665512,19.58471 12.693389,30.71389 1.53816,16.65434 -4.66359,33.34529 -16.748322,45.07537 -2.278296,2.21143 -4.245467,3.92766 -4.491133,3.9182 -0.07492,-0.003 -1.319379,-1.79033 -2.76544,-3.97207 z m -11.496724,-17.15587 -2.788271,-4.18422 1.178315,-1.38364 c 2.03469,-2.38927 2.68334,-3.31243 3.792412,-5.39723 4.004252,-7.52722 4.004252,-16.23508 0,-23.7623 -1.109072,-2.08483 -1.766038,-3.01641 -3.79763,-5.38501 l -1.176312,-1.37142 2.822056,-4.17354 2.822014,-4.17355 0.675321,0.48088 c 1.013035,0.72135 3.644969,3.70545 5.267255,5.97205 1.560199,2.17986 3.927345,6.81814 4.745189,9.29786 2.330172,7.06516 2.330172,15.40261 0,22.46775 -0.817844,2.47973 -3.18499,7.11801 -4.745189,9.29786 -1.642315,2.29459 -4.257558,5.2531 -5.299416,5.99495 l -0.707473,0.50378 z"
         style="fill:#000000;stroke-width:5;stroke-miterlimit:4;stroke-dasharray:none" />
    </g>
    <rect
       ry="3.3750196"
       y="332.92346"
       x="411.62088"
       height="138.56337"
       width="29.632019"
       id="rect6708"
       style="opacity:1;fill:#000000;fill-opacity:1;stroke:#000000;stroke-width:0;stroke-linecap:round;stroke-linejoin:round;stroke-miterlimit:4;stroke-dasharray:none;stroke-dashoffset:0;stroke-opacity:1"
       transform="matrix(0,1,-1,0,0,0)" />
    <path
       style="opacity:1;fill:#e9afaf;fill-opacity:1;stroke:#000000;stroke-width:0;stroke-linecap:round;stroke-linejoin:round;stroke-miterlimit:4;stroke-dasharray:none;stroke-dashoffset:0;stroke-opacity:1"
       id="path6710"
       sodipodi:type="arc"
       sodipodi:cx="-190.57809"
       sodipodi:cy="426.4368"
       sodipodi:rx="95"
       sodipodi:ry="95"
       sodipodi:start="0.24925222"
       sodipodi:end="0.2441"
       sodipodi:open="true"
       d="m -98.513865,449.87134 a 95,95 0 0 1 -115.380165,68.6598 95,95 0 0 1 -68.80836,-115.29164 95,95 0 0 1 115.20291,-68.9568 95,95 0 0 1 69.105133,115.11399" />
    <rect
       transform="matrix(0,1,-1,0,0,0)"
       style="opacity:1;fill:#000000;fill-opacity:1;stroke:#000000;stroke-width:0;stroke-linecap:round;stroke-linejoin:round;stroke-miterlimit:4;stroke-dasharray:none;stroke-dashoffset:0;stroke-opacity:1"
       id="rect6712"
       width="29.632019"
       height="138.56337"
       x="411.62088"
       y="121.2965"
       ry="3.3750196" />
  </g>
</svg>
